<svg xmlns="http://www.w3.org/2000/svg" viewBox="-4416 -17460 180 58">
  <defs>
    <style>
      .cls-1 {
        fill: #fff;
      }

      .cls-2 {
        fill: #006a65;
      }

      .cls-2, .cls-3, .cls-4 {
        fill-rule: evenodd;
      }

      .cls-3 {
        fill: #006c67;
      }

      .cls-4 {
        fill: #e31936;
      }
    </style>
  </defs>
  <g id="Logo_Ferrovie_180x58px" data-name="Logo Ferrovie_180x58px" transform="translate(-4549.4 -17504.92)">
    <rect id="Rectangle_7619" data-name="Rectangle 7619" class="cls-1" width="180" height="58" transform="translate(133.4 44.92)"/>
    <path id="Path_9164" data-name="Path 9164" class="cls-2" d="M81.7,44.4H94.815l-1.262,2.594a.844.844,0,0,0-.7-.491H89.346L84.016,57.442H80.58L85.91,46.5H81.562a2.184,2.184,0,0,0-1.262.491L81.7,44.4ZM120.76,54.918l-1.192,2.524H106.876l5.96-12.131a1.04,1.04,0,0,0,.07-.491.89.89,0,0,0-.07-.421H124.2l-1.332,2.524a.844.844,0,0,0-.7-.491h-6.521L114.1,49.519h6.591l-1.262,2.594a.844.844,0,0,0-.7-.491h-5.68l-1.823,3.716h8.2a2.158,2.158,0,0,0,1.332-.421Zm62.828,0L182.4,57.442h-9.677l5.96-12.131a1.04,1.04,0,0,0,.07-.491.889.889,0,0,0-.07-.421h3.857l-5.4,10.939h5.189a2.1,2.1,0,0,0,1.262-.421Zm-92.63,2.524,5.89-12.061a1.04,1.04,0,0,0,.07-.491.889.889,0,0,0-.07-.421h6.8c1.332,0,3.787,0,3.787,3.085a5.017,5.017,0,0,1-3.787,4.558l.982,4.488a1.38,1.38,0,0,0,.631.912h-3.646l-1.052-5.4H96.989l-2.594,5.4H90.958v-.07Zm13.323-9.957a1.038,1.038,0,0,0-1.122-.982H99.723L97.97,50.01h3.155c1.893,0,3.155-1.192,3.155-2.524ZM143.9,44.4a.889.889,0,0,1,.07.421c0,.14-.07.351-.07.491l-5.89,12.131h3.436L147.826,44.4Zm46,0a.889.889,0,0,1,.07.421c0,.14-.07.351-.07.491l-5.89,12.131h3.436L193.826,44.4Zm-39.688,0h13.183l-1.262,2.594a.844.844,0,0,0-.7-.491h-3.506l-5.329,10.939h-3.436L154.488,46.5H150.21a2.184,2.184,0,0,0-1.262.491L150.21,44.4Zm16.9,0a1.684,1.684,0,0,1-.421,1.052L156.311,57.442h3.015L161.78,54.5h6.381l.07,2.945h3.155l-.7-13.042Zm-3.576,7.994,4.418-5.329.14,5.329ZM199.716,44.4a1.684,1.684,0,0,1-.421,1.052L188.917,57.442h3.015l2.454-2.945h6.381l.07,2.945h3.155l-.7-13.042Zm-3.576,7.994,4.488-5.329.14,5.329Zm-69-6.171.421-.841a1.013,1.013,0,0,0,.14-.491.889.889,0,0,0-.07-.421H131l3.155,9.046,4-8.134a1.013,1.013,0,0,0,.14-.491.889.889,0,0,0-.07-.421h2.8l-6.451,12.972h-2.454l-3.366-9.677-4.768,9.677H121.6l5.54-11.219Z" transform="translate(109.407 31.654)"/>
    <path id="Path_9165" data-name="Path 9165" class="cls-2" d="M6.661,75.126h0l-3.3-.07v1.192H5.119a1.733,1.733,0,0,1-.28.631,1.721,1.721,0,0,1-1.473.631,2.141,2.141,0,0,1,0-4.277,1.61,1.61,0,0,1,.982.28,2.462,2.462,0,0,1,.7.561l1.192-.7a2.555,2.555,0,0,0-.7-.771,3.243,3.243,0,0,0-2.174-.7A3.357,3.357,0,0,0,0,75.406a3.2,3.2,0,0,0,3.3,3.436,3.2,3.2,0,0,0,2.945-1.683,4.372,4.372,0,0,0,.421-2.034ZM179.93,73.373V72.11h-3.716V78.7h3.716V77.369h-2.314v-1.4h2.244V74.7h-2.244V73.373ZM155.107,78.7l-2.665-6.591H150.9L148.305,78.7h1.543l.491-1.332h2.735l.491,1.332Zm-2.524-2.594H150.76l.912-2.594.912,2.594Zm6.8,2.594V77.44h-2.244V72.18h-1.4v6.591h3.646Zm2.174,0V72.11h-1.4V78.7Zm7.363,0-2.665-6.591h-1.543L162.119,78.7h1.543l.491-1.332h2.735l.491,1.332Zm-2.594-2.594H164.5l.912-2.594.912,2.594Zm8.765,2.594V72.11h-1.332v4.347l-3.085-4.347h-1.262V78.7h1.332l-.07-4.418,3.085,4.418Zm-26.436-5.329V72.11h-4.207v1.262h1.4v5.259h1.4V73.373Zm-9.747,2.033A3.372,3.372,0,0,0,135.4,71.97a3.436,3.436,0,1,0,.07,6.872,3.276,3.276,0,0,0,3.436-3.436Zm-1.473,0a2,2,0,0,1-1.963,2.1,2.1,2.1,0,0,1-.07-4.207,2.009,2.009,0,0,1,2.034,2.1Zm6.311,3.3V72.11h-1.4V78.7Zm-11.991-5.329V72.11H127.55v1.262h1.4v5.259h1.4V73.373ZM127.83,78.7l-2.665-6.591h-1.543L121.028,78.7h1.543l.491-1.332H125.8l.491,1.332Zm-2.524-2.594h-1.823l.912-2.594.912,2.594Zm-3.927-2.735V72.11h-4.207v1.262h1.4v5.259h1.4V73.373Zm-12.061,2.033a3.372,3.372,0,0,0-3.506-3.436,3.436,3.436,0,1,0,3.506,3.436Zm-1.473,0a2,2,0,0,1-1.963,2.1,2.1,2.1,0,0,1-.07-4.207,2.009,2.009,0,0,1,2.034,2.1Zm8.905,1.262c0-2.034-2.665-1.823-2.665-2.875a.573.573,0,0,1,.631-.561,1.292,1.292,0,0,1,.982.631l.912-1.052a2.465,2.465,0,0,0-1.893-.912,1.938,1.938,0,0,0-2.1,1.893c0,1.122.912,1.683,1.753,2.1a1.527,1.527,0,0,1,.561.351.866.866,0,0,1,.28.561.756.756,0,0,1-.841.771,1.643,1.643,0,0,1-1.262-.771l-.912,1.052a2.915,2.915,0,0,0,2.1.912,2.1,2.1,0,0,0,2.454-2.1Zm-14.8,2.034V77.44H99.712V72.18h-1.4v6.591h3.646ZM88.282,75.336a3.165,3.165,0,0,0-.491-1.753c-.771-1.332-2.1-1.4-3.436-1.4H83.023v6.591h1.543a4.011,4.011,0,0,0,2.524-.631,3.931,3.931,0,0,0,1.192-2.8Zm-1.4,0a1.921,1.921,0,0,1-2.034,2.174h-.421V73.232h.21a2.341,2.341,0,0,1,1.543.421,2.175,2.175,0,0,1,.7,1.683Zm6.03-1.963V72.11H89.194V78.7H92.91V77.369H90.6v-1.4H92.84V74.7H90.6V73.373ZM97.538,78.7V77.44H95.294V72.18h-1.4v6.591h3.646Zm-18.3-5.329V72.11H75.52V78.7h3.716V77.369H76.922v-1.4h2.244V74.7H76.922V73.373ZM74.188,78.7V72.11h-1.4V78.7ZM72.224,72.11H70.682l-1.613,4.7-1.613-4.7H65.914L68.368,78.7h1.4l2.454-6.591Zm-6.521,3.3A3.372,3.372,0,0,0,62.2,71.97a3.436,3.436,0,1,0,.07,6.872A3.276,3.276,0,0,0,65.7,75.406Zm-1.473,0a2,2,0,0,1-1.963,2.1A2.1,2.1,0,0,1,62.2,73.3a2.009,2.009,0,0,1,2.034,2.1ZM28.679,74.144a1.836,1.836,0,0,0-.351-1.192,2.34,2.34,0,0,0-1.753-.841H24.262V78.7h1.4V76.177h.7a2.577,2.577,0,0,0,1.753-.491,2.45,2.45,0,0,0,.561-1.543Zm-1.4,0c0,.631-.421.841-.982.841h-.631V73.3h.561a.889.889,0,0,1,.421.07.7.7,0,0,1,.631.771ZM35.9,75.406A3.372,3.372,0,0,0,32.4,71.97a3.436,3.436,0,1,0,.07,6.872A3.276,3.276,0,0,0,35.9,75.406Zm-1.473,0a2,2,0,0,1-1.963,2.1A2.1,2.1,0,0,1,32.4,73.3a2.009,2.009,0,0,1,2.034,2.1Zm8.765.491V74.635H40.81V73.373h2.384V72.11H39.408V78.7h1.4V75.967h2.384Zm4.347-2.524V72.11H43.825V78.7h3.716V77.369H45.228v-1.4h2.244V74.7H45.228V73.373Zm5.75,5.329L51.4,75.9a2.1,2.1,0,0,0,.7-.28,1.96,1.96,0,0,0,.771-1.543,2.22,2.22,0,0,0-.28-1.122,2.422,2.422,0,0,0-2.244-.841H48.524V78.7h1.4V75.9l1.753,2.8Zm-1.823-4.558a1.3,1.3,0,0,1-.14.491,1.013,1.013,0,0,1-.982.421h-.491V73.3h.491c.561-.07,1.122.14,1.122.841ZM58.481,78.7l-1.893-2.8a2.1,2.1,0,0,0,.7-.28,1.96,1.96,0,0,0,.771-1.543,2.22,2.22,0,0,0-.28-1.122,2.422,2.422,0,0,0-2.244-.841H53.712V78.7h1.4V75.9l1.753,2.8Zm-1.823-4.558a1.3,1.3,0,0,1-.14.491,1.013,1.013,0,0,1-.982.421h-.491V73.3h.491c.561-.07,1.122.14,1.122.841Zm-33.027,0a1.836,1.836,0,0,0-.351-1.192,2.34,2.34,0,0,0-1.753-.841H19.213V78.7h1.4V76.177h.7a2.577,2.577,0,0,0,1.753-.491,2.45,2.45,0,0,0,.561-1.543Zm-1.4,0c0,.631-.421.841-.982.841h-.631V73.3h.561a.889.889,0,0,1,.421.07.752.752,0,0,1,.631.771ZM12.341,78.7l-1.893-2.8a2.1,2.1,0,0,0,.7-.28,1.96,1.96,0,0,0,.771-1.543,2.22,2.22,0,0,0-.28-1.122A2.422,2.422,0,0,0,9.4,72.11H7.573V78.7h1.4V75.9l1.753,2.8Zm-1.823-4.558a1.3,1.3,0,0,1-.14.491,1.013,1.013,0,0,1-.982.421H8.905V73.3H9.4c.631-.07,1.122.14,1.122.841Zm7.573,1.613V72.11h-1.4v4.067c0,.841-.351,1.332-1.192,1.332a1.18,1.18,0,0,1-1.052-.491,1.467,1.467,0,0,1-.21-.982V71.97h-1.4v4.067a2.267,2.267,0,0,0,.21,1.192A2.559,2.559,0,0,0,15.5,78.7a2.567,2.567,0,0,0,2.174-.982,3.538,3.538,0,0,0,.421-1.963Z" transform="translate(133.4 23.437)"/>
    <path id="Path_9166" data-name="Path 9166" class="cls-3" d="M26.6,28,12.436,29.4,2.9,48.335c7.573,0,11.43-.7,15.847-7.012A129.769,129.769,0,0,0,26.6,28Z" transform="translate(132.534 36.554)"/>
    <path id="Path_9167" data-name="Path 9167" class="cls-3" d="M70.245,2.1,71.367,0H41.5C31.4,0,26.21,3.436,23.054,9.747L20.6,14.725H34.2C38.972,5.469,44.862,2.314,59.237,2.1Z" transform="translate(127.245 44.92)"/>
    <path id="Path_9168" data-name="Path 9168" class="cls-3" d="M79.314,5.9C61.082,6.04,58.067,9.055,54,16.488H74.125L79.314,5.9Z" transform="translate(117.266 43.157)"/>
    <path id="Path_9169" data-name="Path 9169" class="cls-4" d="M43.9,37.632A16.258,16.258,0,0,1,30.713,50.815a48.958,48.958,0,0,1-6.661.7c-2.665.07-24.051.07-24.051.07l.912-1.893s8.134-.07,9.256-.07a73.076,73.076,0,0,0,7.924-.561A13.266,13.266,0,0,0,29.8,39.245l1.613-5.469a9.915,9.915,0,0,1,9.677-7.994L56.658,24.8l-.771,1.543-4.768.28a7.411,7.411,0,0,0-6.8,6.591L43.9,37.632Z" transform="translate(133.4 37.51)"/>
  </g>
</svg>
